<?xml version="1.0" encoding="utf-8"?>
<!-- Generator: Adobe Illustrator 23.0.2, SVG Export Plug-In . SVG Version: 6.00 Build 0)  -->
<svg version="1.1" id="图层_1" xmlns="http://www.w3.org/2000/svg" xmlns:xlink="http://www.w3.org/1999/xlink" x="0px" y="0px"
	 viewBox="0 0 800 800" style="enable-background:new 0 0 800 800;" xml:space="preserve">
<style type="text/css">
	.st0{fill:#393833;}
	.st1{fill:#F3F0DF;}
	.st2{fill:#22211C;}
	.st3{fill:#3F5678;}
	.st4{fill:#BDDCF4;}
	.st5{fill:#315845;}
	.st6{fill:#243A30;}
	.st7{fill:#D87960;}
	.st8{fill:#BF4746;}
	.st9{fill:#F5C26F;}
	.st10{fill:#E78364;}
	.st11{fill:#C85B46;}
	.st12{fill:#F5E3D5;}
	.st13{fill:#EDB463;}
	.st14{fill:#A8CBEF;}
	.st15{fill:#BF3D3C;}
	.st16{fill:#6F9ACD;}
	.st17{fill:#CA5D48;}
	.st18{fill:#957020;}
	.st19{fill:#D6463B;}
	.st20{opacity:0.79;clip-path:url(#SVGID_1_);}
	.st21{fill:#9B3A31;}
	.st22{fill:#0A2D2D;}
	.st23{fill:#579796;}
	.st24{fill:#7ABEC1;}
	.st25{fill:#5CB9C1;}
	.st26{fill:#264849;}
	.st27{fill:#15484B;}
	.st28{fill:#18397C;}
	.st29{fill:#F2F0DB;}
	.st30{fill:#CECCC2;}
	.st31{fill:#EEA256;}
	.st32{fill:#FFEFC7;}
	.st33{fill:#F5C482;}
	.st34{fill:#FAE7BF;}
	.st35{fill:#DBBB94;}
	.st36{fill:#F9E6D7;}
	.st37{fill:#ECAD6A;}
	.st38{fill:#F9C66D;}
	.st39{fill:#6F504B;}
	.st40{fill:#8CAFA8;}
	.st41{fill:#5D9389;}
	.st42{fill:#306359;}
	.st43{fill:#567268;}
	.st44{fill:#66847A;}
	.st45{fill:#1F275B;}
	.st46{fill:#406658;}
	.st47{fill:#F1F2EB;}
	.st48{fill:#495D75;}
	.st49{fill:none;}
	.st50{fill:#D25B38;}
	.st51{fill:#BC472B;}
	.st52{fill:#A53920;}
	.st53{opacity:0.27;}
	.st54{fill:#F2795C;}
	.st55{fill:#D8A94E;}
	.st56{fill:#FFBA31;}
	.st57{fill:#BC8420;}
	.st58{fill:#F0CA98;}
	.st59{fill:#EE9B57;}
	.st60{fill:#FFBC27;}
</style>
<g>
	<g>
		<path class="st19" d="M148.56,545.32c4.43-12.06,12.46-21.75,20.89-31.09c15.27-16.92,32.97-30.82,52.98-41.77
			c0.25-0.14,0.51-0.26,0.95-0.14c-0.92,0.65-1.85,1.3-2.77,1.96c-21.57,15.23-39.41,34.14-54.83,55.45
			c-3.46,4.78-6.94,9.54-10.44,14.3c-0.6,0.81-1.28,1.58-2,2.29c-2.01,1.97-3,1.9-4.78-0.27
			C148.56,545.79,148.56,545.55,148.56,545.32z"/>
	</g>
	<g>
		<path class="st19" d="M360.49,444.62c-3.91,0-7.82-0.12-11.72,0.02c-27.46,1-53.19,8.31-77.42,21.18
			c-14.13,7.51-26.92,16.94-39.26,27.04c-1.79,1.47-3.71,2.8-5.64,4.08c-0.95,0.63-2.3,1.18-3.03,0.01
			c-0.43-0.69-0.34-2.18,0.14-2.88c1.62-2.34,3.33-4.68,5.35-6.67c11.78-11.66,25.43-20.6,40.4-27.61
			c15.99-7.49,32.74-12.42,50.2-14.85c13.62-1.9,27.3-2.07,40.98-0.8C360.49,444.29,360.49,444.46,360.49,444.62z"/>
	</g>
	<g>
		<path class="st19" d="M467.2,533.15c1.54,2.99,3.09,5.97,4.61,8.97c7.64,15.05,14.67,30.36,20.2,46.33
			c5.51,15.94,9.58,32.2,10.77,49.07c0.65,9.17,0.69,18.35-1.35,27.4c-0.27,1.21-0.68,2.43-1.28,3.5c-0.31,0.54-1.23,1.07-1.82,1.01
			c-0.59-0.06-1.44-0.78-1.58-1.36c-0.37-1.48-0.54-3.05-0.57-4.58c-0.22-8.94-0.16-17.89-0.61-26.81
			c-0.73-14.26-3.25-28.27-6.81-42.09c-5.3-20.6-12.95-40.35-21.32-59.86c-0.2-0.47-0.37-0.95-0.56-1.43
			C466.98,533.25,467.09,533.2,467.2,533.15z"/>
	</g>
	<g>
		<path class="st19" d="M377.91,518.37c-1.9,5.13-3.84,10.23-5.68,15.38c-5.97,16.74-11.11,33.74-14.62,51.16
			c-3.57,17.68-6.52,35.49-9.76,53.24c-0.56,3.05-1.14,6.09-1.84,9.1c-0.29,1.26-0.77,2.53-1.43,3.63c-0.31,0.52-1.27,0.95-1.9,0.9
			c-0.52-0.04-1.31-0.77-1.41-1.31c-0.36-1.8-0.71-3.65-0.63-5.47c0.46-10.86,2.13-21.58,4.33-32.2
			c4.51-21.74,10.79-42.99,19.09-63.58c4.01-9.94,8.59-19.65,12.92-29.46c0.21-0.49,0.49-0.95,0.73-1.42
			C377.77,518.35,377.84,518.36,377.91,518.37z"/>
	</g>
	<g>
		<path class="st19" d="M492.48,392.82c6.68-4.46,13.26-9.09,20.07-13.34c18.95-11.83,39.13-21.05,60.53-27.5
			c9.13-2.75,18.37-5.12,27.95-5.71c1.01-0.06,2.09-0.14,3.01,0.15c0.8,0.25,1.94,0.97,2.01,1.59c0.09,0.76-0.58,2.04-1.27,2.38
			c-1.96,0.96-4.06,1.7-6.18,2.27c-9.56,2.54-19.16,4.91-28.71,7.48c-27.04,7.28-52.59,18.09-76.47,32.75
			c-0.2,0.12-0.41,0.25-0.61,0.37C492.71,393.1,492.59,392.96,492.48,392.82z"/>
	</g>
	<g>
		<path class="st19" d="M336.95,298.42c-17.65-20.97-39.66-36.24-63.22-49.53c-7.68-4.33-15.46-8.51-23.16-12.81
			c-1.08-0.6-2.17-1.35-2.95-2.28c-0.51-0.61-0.85-1.87-0.56-2.51c0.29-0.63,1.57-1.3,2.25-1.17c2.44,0.48,4.9,1.08,7.19,2.03
			c15.47,6.48,29.28,15.69,42.39,26.04c14.03,11.07,26.55,23.61,36.79,38.32C336.12,297.14,336.53,297.79,336.95,298.42z"/>
	</g>
	<g>
		<path class="st19" d="M403.59,547.52c-0.24,4.45-0.29,8.93-0.75,13.36c-1.74,16.59-3.5,33.18-5.5,49.74
			c-1.21,9.99-2.84,19.92-4.35,29.88c-0.17,1.15-0.57,2.36-1.2,3.33c-0.4,0.63-1.43,1.24-2.12,1.18c-0.69-0.06-1.7-0.85-1.87-1.51
			c-0.43-1.59-0.77-3.32-0.59-4.92c0.98-8.69,1.71-17.44,3.31-26.03c2.9-15.57,6.42-31.03,9.55-46.56
			c1.24-6.12,2.15-12.3,3.22-18.46C403.38,547.52,403.48,547.52,403.59,547.52z"/>
	</g>
	<g>
		<path class="st19" d="M463.88,370.53c2.04-6.73,5.1-12.91,8.76-18.79c8.55-13.74,19.43-25.5,31.4-36.24
			c5.76-5.17,11.96-9.84,18.04-14.64c1.24-0.98,2.75-1.72,4.25-2.22c0.72-0.24,2.03,0.04,2.5,0.58c0.47,0.55,0.58,1.89,0.23,2.57
			c-0.67,1.29-1.64,2.52-2.74,3.48c-6.75,5.87-13.52,11.71-20.37,17.44c-11.03,9.23-21.99,18.57-30.69,30.13
			c-3.96,5.26-7.19,11.07-10.75,16.64C464.29,369.82,464.09,370.17,463.88,370.53z"/>
	</g>
	<g>
		<path class="st19" d="M409.07,282.71c-1.49-6-3.09-11.97-4.44-18c-3.3-14.82-6.42-29.68-9.74-44.5
			c-1.02-4.53-2.52-8.94-3.69-13.44c-0.39-1.48-0.63-3.05-0.59-4.57c0.02-0.69,0.76-1.69,1.41-1.95c0.66-0.26,1.94-0.07,2.37,0.42
			c1.15,1.33,2.2,2.84,2.92,4.44c3.76,8.34,5.75,17.17,6.74,26.2c1.23,11.31,2.13,22.66,3.27,33.98c0.54,5.33,1.3,10.64,1.97,15.96
			c0.06,0.46,0.12,0.91,0.18,1.37C409.34,282.65,409.2,282.68,409.07,282.71z"/>
	</g>
	<g>
		<path class="st19" d="M356,419.65c-9.88-3.56-20.04-5.81-30.47-6.72c-11.02-0.96-22.04-0.45-33.07,0.04
			c-4.46,0.2-8.94,0.23-13.41,0.18c-3.05-0.04-4.12-0.82-4.21-2.56c-0.08-1.74,1-2.74,3.98-3.28c7.54-1.38,15.16-1.7,22.8-1.41
			c10.75,0.4,21.38,1.71,31.77,4.58C341.3,412.65,348.86,415.65,356,419.65z"/>
	</g>
	<g>
		<path class="st19" d="M531.42,409c3.25-0.56,7.74-1.53,12.27-2.08c15.3-1.85,30.61-3.7,45.95-5.23c4.77-0.48,9.63,0.02,14.45,0.16
			c0.93,0.03,1.99,0.21,2.72,0.7c0.72,0.49,1.58,1.5,1.53,2.23c-0.06,0.85-0.87,2.05-1.64,2.36c-1.52,0.6-3.23,0.86-4.88,0.94
			c-6.07,0.3-12.14,0.6-18.22,0.67c-14.01,0.15-28.01,0.18-42.02,0.24C537.8,409.01,534.01,409,531.42,409z"/>
	</g>
	<g>
		<path class="st19" d="M454.06,461.27c5.95-0.13,11.64,1.18,17.13,3.22c16.26,6.05,30.79,15.07,44.11,26.11
			c1.23,1.02,2.28,2.26,3.3,3.49c0.81,0.98,0.78,2.08,0,3.13c-0.8,1.07-1.93,1.35-3.01,0.74c-3.05-1.72-6.17-3.37-9-5.43
			c-8.68-6.31-17.13-12.94-25.85-19.18c-6.37-4.56-13.23-8.31-20.78-10.61C458.02,462.15,456.04,461.76,454.06,461.27z"/>
	</g>
	<g>
		<path class="st19" d="M395.08,385.84c-2.77-5.95-5.17-11.6-7.99-17.03c-5.98-11.52-12.18-22.92-18.27-34.39
			c-1.12-2.1-2.16-4.24-3.17-6.4c-0.33-0.69-0.7-1.51-0.6-2.2c0.12-0.84,0.53-1.9,1.18-2.34c0.63-0.43,2.03-0.58,2.54-0.17
			c1.42,1.12,2.73,2.49,3.78,3.97c4.58,6.45,7.82,13.61,10.76,20.92c4.81,11.95,8.37,24.3,11.77,36.7
			C395.11,385.07,395.08,385.25,395.08,385.84z"/>
	</g>
	<g>
		<path class="st19" d="M302.68,332.43c-3.59-1.8-7.1-3.8-10.79-5.38c-10.18-4.35-20.46-8.48-30.66-12.78
			c-3.62-1.52-7.14-3.27-10.67-4.98c-0.78-0.38-1.66-0.93-2.06-1.65c-0.43-0.78-0.7-1.99-0.39-2.74c0.3-0.73,1.51-1.65,2.19-1.56
			c2.33,0.31,4.71,0.78,6.88,1.65c14.15,5.62,27.04,13.49,39.34,22.38c2.15,1.55,4.22,3.21,6.32,4.82
			C302.8,332.26,302.74,332.35,302.68,332.43z"/>
	</g>
	<g>
		<path class="st19" d="M491.56,504.5c5.36,5.74,10.85,11.35,16.02,17.26c3.24,3.7,5.98,7.83,8.91,11.8
			c0.41,0.56,0.69,1.26,0.9,1.93c0.43,1.41,0.68,2.81-0.93,3.77c-1.69,1-3.01,0.99-4.31-0.52c-1.66-1.94-3.3-3.94-4.62-6.12
			c-5.05-8.35-9.97-16.78-14.94-25.18c-0.51-0.86-1.04-1.7-1.55-2.55C491.21,504.76,491.38,504.63,491.56,504.5z"/>
	</g>
	<g>
		<path class="st19" d="M396.74,436.58c-4.12-1.95-8.39-3.65-12.34-5.92c-5.67-3.26-11.12-6.9-16.61-10.47
			c-1.08-0.7-1.93-1.76-2.81-2.73c-1.16-1.29-1.16-2.63-0.06-4.03c1.06-1.35,2.38-1.67,3.78-0.85c1.89,1.11,3.82,2.26,5.46,3.69
			c7.58,6.62,15.08,13.34,22.6,20.03C396.75,436.39,396.74,436.48,396.74,436.58z"/>
	</g>
	<g>
		<path class="st19" d="M416.85,426.92c-1.92-8.4-3.77-16.78-3.65-25.41c0.03-2.12,0.42-4.25,0.84-6.34
			c0.33-1.67,1.56-2.23,3.23-2.07c1.69,0.16,3.02,0.8,2.95,2.65c-0.13,3.68-0.33,7.36-0.75,11.01
			C418.69,413.49,417.73,420.2,416.85,426.92z"/>
	</g>
	<g>
		<path class="st19" d="M433.86,447.29c3.54-0.92,7.06-1.89,10.62-2.7c0.82-0.19,1.78,0.06,2.63,0.28c1.28,0.33,1.84,1.25,1.59,2.57
			c-0.14,0.76-0.38,1.49-0.57,2.24c-0.43,1.73-1.59,2.37-3.22,1.88c-3.68-1.09-7.33-2.29-10.99-3.45
			C433.91,447.83,433.88,447.56,433.86,447.29z"/>
	</g>
	<g>
		<path class="st19" d="M408.21,453.18c-1.88,2.64-3.62,5.4-5.72,7.86c-0.78,0.91-3.14,1.86-3.49,1.51
			c-1.26-1.26-2.12-3.01-2.75-4.72c-0.14-0.39,1.11-1.67,1.94-1.99c3.14-1.2,6.37-2.17,9.56-3.22
			C407.89,452.81,408.05,452.99,408.21,453.18z"/>
	</g>
</g>
</svg>
